<?xml version="1.0" encoding="UTF-8"?><svg id="Layer_1" xmlns="http://www.w3.org/2000/svg" xmlns:xlink="http://www.w3.org/1999/xlink" viewBox="0 0 1141.51 378.21"><defs><style>.cls-1{fill:#a67c52;}.cls-1,.cls-2,.cls-3,.cls-4,.cls-5,.cls-6,.cls-7,.cls-8{stroke-width:0px;}.cls-2{fill:#754c24;}.cls-3{fill:#c69c6d;}.cls-4{fill:#ccaa87;}.cls-5{fill:none;}.cls-6{fill:#b57e61;}.cls-9{clip-path:url(#clippath);}.cls-7{fill:#8c6239;}.cls-8{fill:#fff;}</style><clipPath id="clippath"><path class="cls-5" d="M1087.21,176.97s12.1-19.56,10.52-26.52c0-.01,0-.02-.01-.03-.17-3.83-2.34-7.33-5.69-9.16-.19-.79-.47-1.57-.83-2.3-1.24-2.5-3.42-4.46-6.04-5.43-3.01-1.16-5.94-2.05-8.96-2.73-2.24-.5-4.47-.87-6.82-1.13-.42-.05-.84-.07-1.26-.07-3.04,0-5.81,1.21-7.82,3.22-1.08-.24-2.15-.48-3.21-.72-.8-.18-1.62-.27-2.43-.27-4.76,0-8.97,3.04-10.47,7.56-.03.09-.06.17-.08.26-.32,1.07-.54,2.04-.74,2.94-.08.38-.14.76-.22,1.14-2.04,2.84-6.33,3.07-8.62.24-.75-3.32-2.98-6.16-6.04-7.61-6.16-3.06-11.91-5.25-17.58-6.7-.98-.28-1.99-.43-3.02-.43-3.88,0-7.54,2.07-9.56,5.4-.05.09-.11.18-.16.27,0,0-.01.02-.02.03-3.99,4.79-8.27,12.16-10.89,16.97-1.43,2.62-4.54,3.85-7.36,2.89-2.28-.77-5.14-1.59-8.06-2.02-1.05-.34-2.17-.52-3.32-.52-.75,0-1.5.08-2.24.23-.08.02-.15.04-.23.05-1.56.15-3.03.51-4.32,1.15-3.76,1.88-8.53,1.31-12,2-4.76.95-9.81,4.68-13.78-.47-.17-.27-.36-.53-.55-.78-.01-.02-.02-.03-.03-.05-.17-.27-.41-.53-.66-.77-.96-1.02-2.12-1.88-3.46-2.49-1.26-.6-2.49-1.11-3.68-1.61-9.01-3.77-18.4-6.49-27.91-8.09-.62-.11-1.26-.16-1.89-.16-2.93,0-5.65,1.14-7.69,3.08,0-.11.02-.21.02-.31.06-1.44.13-2.94.13-4.45,0-3.2-.24-6.23-.72-9.01-.82-5.35-5.42-9.34-10.89-9.34h-.12c-.22,0-.43,0-.65.02-.81.05-1.62.11-2.43.17-.18-.25-.38-.5-.58-.73-1.88-2.18-4.48-3.53-7.33-3.82-.33-.03-.66-.05-.99-.05-.18,0-.35-.01-.53-.02-.48-.02-.96-.04-1.44-.04-3.3,0-6.75.26-10.55.8-4.32.55-7.79,3.57-9.09,7.58-1.14.2-2.28.4-3.43.62-.2.04-.39.08-.58.13-1.2.3-2.3.78-3.3,1.41-.74.32-1.37.77-1.87,1.38-.21.26-.41.51-.61.77-.3.34-.57.71-.83,1.08-7.41,10.02-7.15,17.75-16.28,14.25-1.12-.53-2.34-.88-3.62-1-5.77-.92-13.02.92-19.66,5.9-2.88,2.16-7,7.22-14,3.22-.09-.05-.2-.1-.31-.16-1.78-1.18-3.88-1.85-6.08-1.85-1.29,0-2.56.22-3.82.68-1.3.48-2.57,1.06-3.85,1.76-.28-.28-.57-.55-.88-.8-.16-.13-.32-.26-.48-.39.09-.23.19-.48.27-.74.1-.3.19-.61.26-.92.17-.72.26-1.35.32-1.81.02-.12.03-.23.03-.26.21-.93.29-1.88.23-2.83-.06-1.05-.25-1.91-.37-2.42,0-.06-.02-.12-.02-.18-.33-2.29-1.25-3.9-1.63-4.56-1.43-2.65-3.51-4.77-6.01-6.14-.74-.4-1.42-.67-1.93-.85-1.89-.96-4-1.44-6.32-1.44-.83,0-1.56.06-2.16.12-.37.04-.73.09-1.1.17-2.2.47-4.16,1.29-5.81,2.43-.34.23-.69.51-1,.79-1.59,1.42-2.68,2.66-3.45,3.95l-.05.08c-.5.73-1.54,2.25-2.13,4.38-.46,1.66-.62,3.32-.48,4.93,0,.39.02.99.13,1.7.06.43.15.85.27,1.26.43,1.55,1.19,3.83,2.81,6.09-.09.22-.16.42-.23.6-.13,0-.26.02-.38.03-.21.02-.41.04-.62.07-.1.01-.19.04-.29.05-.55-1.25-1.33-2.41-2.33-3.41-.17-.17-.35-.34-.54-.5-3.07-2.65-6.51-4.9-10.25-6.7-1.48-.72-3.14-1.1-4.79-1.1-.93,0-1.86.12-2.74.35l2.17-5.03c.1-.23.19-.47.28-.71.17-.48.65-1.86.65-3.7,0-4.4-2.64-8.37-6.72-10.12-.23-.1-.46-.19-.7-.27-4.76-1.64-9.12-2.64-13.25-3.07-.4-.04-.81-.07-1.21-.07-5.01,0-9.36,3.32-10.64,8.1-1.3,4.68-2.47,9.39-3.51,14.1-.08-.26-.16-.53-.24-.8-.78-2.42-1.72-5-2.88-7.89-1.61-4.29-5.7-7.15-10.34-7.15-.96,0-1.9.12-2.82.37-1.04.26-1.98.56-2.83.84-2.73.88-5.11,1.87-7.06,2.95-2.19,1.16-3.86,2.98-4.85,5.12-2.01-1.75-4.62-2.78-7.4-2.78-1.17,0-2.32.18-3.43.54-.05.02-.1.03-.14.05-3.28,1.12-8.03,3.03-12.07,5.82-.67.45-1.27.97-1.82,1.54l-11.12,8.05c-2.95-3.76-6.19-7.46-9.76-11.11,10.45-8.41,15.67-21.02,13.78-33.91-2.53-17.27-18.57-34.69-48.71-34.69-4.17,0-8.55.33-13.03.99-10.14,1.48-20.84,4.57-31.82,9.18-6.37,2.61-10.9,8.19-12.38,14.71-4.26-.76-9.08-1.6-13.74-2.28-17.84-2.62-35.42-3.95-52.27-3.95-1.9,0-3.8.02-5.72.05-7.52.17-13.97,4.01-17.57,9.84-.36-6.19-.9-12.28-1.62-18.24-.33-2.71-1.75-5.16-3.93-6.8-1.74-1.3-3.85-1.99-5.99-1.99-.55,0-1.09.04-1.64.13-36.59,6.08-67.07,13.04-93.16,21.27-1.06.34-2.03.84-2.89,1.47-.78-7.44-1.81-14.74-3.09-21.83-.49-2.68-2.05-5.05-4.32-6.56-1.65-1.09-3.57-1.66-5.52-1.66-.74,0-1.48.08-2.21.25-36.18,8.2-66.2,16.91-91.77,26.64-4.43,1.69-7.07,6.25-6.31,10.94.25,1.55.52,3.17.83,4.84-1.6-1.08-3.52-1.71-5.58-1.71h-.02c-4.59,0-9.9.03-14.95.19-20.05.65-39.47,2.81-57.76,6.44-4.43.9-8.23,3.05-11.12,5.99-.63-16.92-13.11-34.62-41.03-37.24-2.31-.22-4.75-.33-7.23-.33-5.5,0-11.46.53-17.67,1.57-9.72,1.59-16.99,9.46-17.68,19.13,0,.03,0,.07,0,.1-1.59,26.2-1.16,52.73,1.22,78.89,0,.16,0,.32,0,.48.31,15.7,5.81,17.25,9.68,21.78,2.72,3.18,2.01,8.12.89,12.15,0,0-8.48,19.11-7.15,25.63.01.05.05.12.07.19.14,1.25.48,2.47,1.04,3.63.03.06.06.12.09.18,2.49,4.92,5.39,9.22,8.87,13.13,1.59,1.94,3.81,3.26,6.33,3.76.72.14,1.46.22,2.2.22,2.13,0,4.19-.59,5.96-1.72l3.7-2.3,6.02,5.27c1.47,1.34,3.25,2.21,5.27,2.61.72.14,1.45.22,2.18.22,2.08,0,4.11-.59,5.88-1.71,1.22-.75,2.34-1.57,3.38-2.44.21-.06.39-.12.52-.21,2.22-1.55,8.88-.26,10.71,1.74.12.13.27.24.44.33.71.9,1.53,1.7,2.47,2.34.16,2.39.33,4.8.5,7.23.02.28.05.56.1.84.72,4.57,4.23,8.26,8.75,9.2.09.02.19.04.28.05,1.49.26,3.05.4,4.66.4,1.44,0,2.91-.1,4.5-.31.09-.01.18-.02.26-.04,2.78-.44,5.19-1.9,6.85-3.99,2.02,1.95,4.76,3.12,7.71,3.12.15,0,.35,0,.51-.01.05,0,.1,0,.16,0,1.51-.09,3.01-.25,4.46-.48,1.98-.31,3.66-.67,5.25-1.13,1.34-.38,2.55-.99,3.62-1.78l.13.05s3-2,4.09-6.41c.97-3.95,7.3-1.54,7.3-1.54,0,0,.65.05,1.73.14,6.32,1.19,12.63,1.78,19.28,1.78,1.5,0,2.99-.04,4.47-.1,1.02.05,1.9.08,2.59.08,4.54.04,10.13,24.77,16.64,30.52.25.22.59.44.98.64,1.43,1.11,3.17,1.84,5.07,2.04,1.41.15,2.83.28,4.26.39,1.82.29,3.13.43,3.13.43l.22-.22c3.19.18,6.41.28,9.64.28,6.32,0,12.54-.29,19.02-.89,4.46-.41,8.09-3.74,8.91-8.14.39-2.1.76-4.22,1.12-6.35.85.35,1.77.59,2.72.7,5.09.56,10.28.99,15.44,1.27,5.19.29,10.4.43,15.47.43,2.31,0,4.62-.03,6.87-.09,5.13-.13,9.32-4.13,9.71-9.24l1.23-16.2,22.53,24.11c1.46,1.56,3.37,2.61,5.47,3,6.32,1.18,11.23,1.82,15.93,2.08,1.78.1,3.54.15,5.23.15,2.64,0,5.21-.12,7.66-.37,1.35-.13,2.63-.54,3.77-1.16.8,6.82,1.68,13.63,2.66,20.39.67,4.61,4.43,8.14,9.07,8.53,2.08.17,4.25.26,6.47.26,1.33,0,2.72-.03,4.12-.09,1.35-.06,2.77-.15,4.19-.27,3.88-.32,7.62-.88,11.08-1.45,4.98-.81,8.58-5.21,8.38-10.26l-.58-14.99,10.2-.72c2.87-.2,5.38-1.61,7.06-3.69l4.68-.33c5.73,12.43,17.98,22.03,36.33,22.03,14.77,0,26.15-6.82,33.2-16.43.57,2.98,1.14,5.96,1.76,8.94.96,4.61,5,7.93,9.7,7.97.81,0,1.63.01,2.44.01,2.31,0,4.28-.04,6.02-.11,3.05-.12,6.23-.39,8.66-.6,5.42-.48,9.46-5.2,9.1-10.63l-.74-11.09,22.08,19.65c1.84,1.64,4.21,2.53,6.65,2.53.29,0,.58-.01.87-.04,9.24-.81,17.65-2.67,25.69-5.71,5.14-1.94,7.75-7.66,5.86-12.81-.59-1.59-1.22-3.18-1.89-4.75,4.77.96,9.69,1.6,14.88,1.93,1.43.09,2.94.15,4.74.19.07,0,.14,0,.21,0,4.46,0,8.4-2.96,9.62-7.28l4.18-14.75,1.17,4.38c1.01,3.77,4.12,6.62,7.97,7.28,2.77.48,5.76.94,8.9,1.15,1.33.09,2.75.13,4.33.13,1.44,0,2.96-.03,4.95-.11,3.92-.14,7.4-2.57,8.89-6.2l2.46-6.01,3.55,18.23c.87,4.49,4.68,7.81,9.24,8.07,1.7.1,3.48.15,5.28.15,3.08,0,6.27-.15,9.62-.43-1.04,5.04-2.05,10.17-3.01,15.42-.98,5.36,2.5,10.52,7.83,11.61,7.19,1.47,14.71,2.21,22.36,2.21,3.01,0,6.07-.12,9.09-.37,4.61-.37,8.37-3.86,9.08-8.43l.79-5.11h12.41l.55,3.98c.59,4.27,3.84,7.68,8.07,8.47,1.7.32,3.39.55,5.08.75l.16.26,1.13-.11c2.46.24,4.93.38,7.46.38,6.29,0,12.75-.7,19.73-2.13,1.13-.23,2.17-.65,3.11-1.21l.42-.04.04-.25c2.88-1.94,4.64-5.31,4.4-8.97-.33-4.82-.7-9.53-1.11-14.13l.22-1.54c.7-4.94,4.46-8.69,9.09-9.63,1.42,3.16,4.43,5.44,8.03,5.84,3.3.36,6.73.54,10.17.54.75,0,1.5,0,2.26-.03,4.01-.09,8.12-.45,12.21-1.08.89-.14,1.74-.39,2.53-.74l.35.05.07-.26c3.21-1.6,5.41-4.85,5.54-8.59l.12-3.29c.8-.56,1.66-.99,2.57-1.31,1.91,7.03,3.97,13.93,6.18,20.62,1.36,4.12,5.22,6.86,9.49,6.86.32,0,.64-.01.96-.04,3.28-.31,6.62-.78,9.94-1.4,3.71-.69,7.31-1.52,11.02-2.52,4.38-1.19,7.4-5.18,7.37-9.71-.02-2.5-.08-5.03-.16-7.57,5.63,5.64,12.79,10.07,21.45,12.63l.46.36.6-.07c5.01,1.37,10.49,2.14,16.46,2.14,9.81,0,20.41-1.98,31.6-5.88,4.8,1.42,9.05,4.46,11.94,8.73.03,1.3.13,2.56.31,3.79.56,3.76,3.21,6.86,6.82,8.03l.17.29.13-.19c5.52,1.67,10.55,2.89,15.34,3.74,5.47.96,10.76,1.45,15.73,1.45,26.52,0,40.82-13.84,43.23-27.55,2.08-11.83-4.23-23.31-16.07-29.25-3.81-1.91-7.67-5.13-7.09-8.42.56-3.22,4.62-4.66,8.38-4.66,1.03,0,2.11.1,3.21.29,2.9.51,5.95,1.64,9.04,3.35,1.53.85,3.19,1.25,4.83,1.25,3.2,0,6.33-1.54,8.26-4.35,6.48-9.46,10.96-20.41,13.33-32.56.03-.08.07-.16.1-.24,2.45-6.59-7.73-27.05-7.73-27.05-1.67-5.85-1.36-12.08.88-17.73Z"/></clipPath></defs><path class="cls-4" d="M1087.21,176.97s12.1-19.56,10.52-26.52c0-.01,0-.02-.01-.03-.17-3.83-2.34-7.33-5.69-9.16-.19-.79-.47-1.57-.83-2.3-1.24-2.5-3.42-4.46-6.04-5.43-3.01-1.16-5.94-2.05-8.96-2.73-2.24-.5-4.47-.87-6.82-1.13-.42-.05-.84-.07-1.26-.07-3.04,0-5.81,1.21-7.82,3.22-1.08-.24-2.15-.48-3.21-.72-.8-.18-1.62-.27-2.43-.27-4.76,0-8.97,3.04-10.47,7.56-.03.09-.06.17-.08.26-.32,1.07-.54,2.04-.74,2.94-.08.38-.14.76-.22,1.14-2.04,2.84-6.33,3.07-8.62.24-.75-3.32-2.98-6.16-6.04-7.61-6.16-3.06-11.91-5.25-17.58-6.7-.98-.28-1.99-.43-3.02-.43-3.88,0-7.54,2.07-9.56,5.4-.05.09-.11.18-.16.27,0,0-.01.02-.02.03-3.99,4.79-8.27,12.16-10.89,16.97-1.43,2.62-4.54,3.85-7.36,2.89-2.28-.77-5.14-1.59-8.06-2.02-1.05-.34-2.17-.52-3.32-.52-.75,0-1.5.08-2.24.23-.08.02-.15.04-.23.05-1.56.15-3.03.51-4.32,1.15-3.76,1.88-8.53,1.31-12,2-4.76.95-9.81,4.68-13.78-.47-.17-.27-.36-.53-.55-.78-.01-.02-.02-.03-.03-.05-.17-.27-.41-.53-.66-.77-.96-1.02-2.12-1.88-3.46-2.49-1.26-.6-2.49-1.11-3.68-1.61-9.01-3.77-18.4-6.49-27.91-8.09-.62-.11-1.26-.16-1.89-.16-2.93,0-5.65,1.14-7.69,3.08,0-.11.02-.21.02-.31.06-1.44.13-2.94.13-4.45,0-3.2-.24-6.23-.72-9.01-.82-5.35-5.42-9.34-10.89-9.34h-.12c-.22,0-.43,0-.65.02-.81.05-1.62.11-2.43.17-.18-.25-.38-.5-.58-.73-1.88-2.18-4.48-3.53-7.33-3.82-.33-.03-.66-.05-.99-.05-.18,0-.35-.01-.53-.02-.48-.02-.96-.04-1.44-.04-3.3,0-6.75.26-10.55.8-4.32.55-7.79,3.57-9.09,7.58-1.14.2-2.28.4-3.43.62-.2.04-.39.08-.58.13-1.2.3-2.3.78-3.3,1.41-.74.32-1.37.77-1.87,1.38-.21.26-.41.51-.61.77-.3.34-.57.71-.83,1.08-7.41,10.02-7.15,17.75-16.28,14.25-1.12-.53-2.34-.88-3.62-1-5.77-.92-13.02.92-19.66,5.9-2.88,2.16-7,7.22-14,3.22-.09-.05-.2-.1-.31-.16-1.78-1.18-3.88-1.85-6.08-1.85-1.29,0-2.56.22-3.82.68-1.3.48-2.57,1.06-3.85,1.76-.28-.28-.57-.55-.88-.8-.16-.13-.32-.26-.48-.39.09-.23.19-.48.27-.74.1-.3.19-.61.26-.92.17-.72.26-1.35.32-1.81.02-.12.03-.23.03-.26.21-.93.29-1.88.23-2.83-.06-1.05-.25-1.91-.37-2.42,0-.06-.02-.12-.02-.18-.33-2.29-1.25-3.9-1.63-4.56-1.43-2.65-3.51-4.77-6.01-6.14-.74-.4-1.42-.67-1.93-.85-1.89-.96-4-1.44-6.32-1.44-.83,0-1.56.06-2.16.12-.37.04-.73.09-1.1.17-2.2.47-4.16,1.29-5.81,2.43-.34.23-.69.51-1,.79-1.59,1.42-2.68,2.66-3.45,3.95l-.05.08c-.5.73-1.54,2.25-2.13,4.38-.46,1.66-.62,3.32-.48,4.93,0,.39.02.99.13,1.7.06.43.15.85.27,1.26.43,1.55,1.19,3.83,2.81,6.09-.09.22-.16.42-.23.6-.13,0-.26.02-.38.03-.21.02-.41.04-.62.07-.1.01-.19.04-.29.05-.55-1.25-1.33-2.41-2.33-3.41-.17-.17-.35-.34-.54-.5-3.07-2.65-6.51-4.9-10.25-6.7-1.48-.72-3.14-1.1-4.79-1.1-.93,0-1.86.12-2.74.35l2.17-5.03c.1-.23.19-.47.28-.71.17-.48.65-1.86.65-3.7,0-4.4-2.64-8.37-6.72-10.12-.23-.1-.46-.19-.7-.27-4.76-1.64-9.12-2.64-13.25-3.07-.4-.04-.81-.07-1.21-.07-5.01,0-9.36,3.32-10.64,8.1-1.3,4.68-2.47,9.39-3.51,14.1-.08-.26-.16-.53-.24-.8-.78-2.42-1.72-5-2.88-7.89-1.61-4.29-5.7-7.15-10.34-7.15-.96,0-1.9.12-2.82.37-1.04.26-1.98.56-2.83.84-2.73.88-5.11,1.87-7.06,2.95-2.19,1.16-3.86,2.98-4.85,5.12-2.01-1.75-4.62-2.78-7.4-2.78-1.17,0-2.32.18-3.43.54-.05.02-.1.03-.14.05-3.28,1.12-8.03,3.03-12.07,5.82-.67.45-1.27.97-1.82,1.54l-11.12,8.05c-2.95-3.76-6.19-7.46-9.76-11.11,10.45-8.41,15.67-21.02,13.78-33.91-2.53-17.27-18.57-34.69-48.71-34.69-4.17,0-8.55.33-13.03.99-10.14,1.48-20.84,4.57-31.82,9.18-6.37,2.61-10.9,8.19-12.38,14.71-4.26-.76-9.08-1.6-13.74-2.28-17.84-2.62-35.42-3.95-52.27-3.95-1.9,0-3.8.02-5.72.05-7.52.17-13.97,4.01-17.57,9.84-.36-6.19-.9-12.28-1.62-18.24-.33-2.71-1.75-5.16-3.93-6.8-1.74-1.3-3.85-1.99-5.99-1.99-.55,0-1.09.04-1.64.13-36.59,6.08-67.07,13.04-93.16,21.27-1.06.34-2.03.84-2.89,1.47-.78-7.44-1.81-14.74-3.09-21.83-.49-2.68-2.05-5.05-4.32-6.56-1.65-1.09-3.57-1.66-5.52-1.66-.74,0-1.48.08-2.21.25-36.18,8.2-66.2,16.91-91.77,26.64-4.43,1.69-7.07,6.25-6.31,10.94.25,1.55.52,3.17.83,4.84-1.6-1.08-3.52-1.71-5.58-1.71h-.02c-4.59,0-9.9.03-14.95.19-20.05.65-39.47,2.81-57.76,6.44-4.43.9-8.23,3.05-11.12,5.99-.63-16.92-13.11-34.62-41.03-37.24-2.31-.22-4.75-.33-7.23-.33-5.5,0-11.46.53-17.67,1.57-9.72,1.59-16.99,9.46-17.68,19.13,0,.03,0,.07,0,.1-1.59,26.2-1.16,52.73,1.22,78.89,0,.16,0,.32,0,.48.31,15.7,5.81,17.25,9.68,21.78,2.72,3.18,2.01,8.12.89,12.15,0,0-8.48,19.11-7.15,25.63.01.05.05.12.07.19.14,1.25.48,2.47,1.04,3.63.03.06.06.12.09.18,2.49,4.92,5.39,9.22,8.87,13.13,1.59,1.94,3.81,3.26,6.33,3.76.72.14,1.46.22,2.2.22,2.13,0,4.19-.59,5.96-1.72l3.7-2.3,6.02,5.27c1.47,1.34,3.25,2.21,5.27,2.61.72.14,1.45.22,2.18.22,2.08,0,4.11-.59,5.88-1.71,1.22-.75,2.34-1.57,3.38-2.44.21-.06.39-.12.52-.21,2.22-1.55,8.88-.26,10.71,1.74.12.13.27.24.44.33.71.9,1.53,1.7,2.47,2.34.16,2.39.33,4.8.5,7.23.02.28.05.56.1.84.72,4.57,4.23,8.26,8.75,9.2.09.02.19.04.28.05,1.49.26,3.05.4,4.66.4,1.44,0,2.91-.1,4.5-.31.09-.01.18-.02.26-.04,2.78-.44,5.19-1.9,6.85-3.99,2.02,1.95,4.76,3.12,7.71,3.12.15,0,.35,0,.51-.01.05,0,.1,0,.16,0,1.51-.09,3.01-.25,4.46-.48,1.98-.31,3.66-.67,5.25-1.13,1.34-.38,2.55-.99,3.62-1.78l.13.05s3-2,4.09-6.41c.97-3.95,7.3-1.54,7.3-1.54,0,0,.65.05,1.73.14,6.32,1.19,12.63,1.78,19.28,1.78,1.5,0,2.99-.04,4.47-.1,1.02.05,1.9.08,2.59.08,4.54.04,10.13,24.77,16.64,30.52.25.22.59.44.98.64,1.43,1.11,3.17,1.84,5.07,2.04,1.41.15,2.83.28,4.26.39,1.82.29,3.13.43,3.13.43l.22-.22c3.19.18,6.41.28,9.64.28,6.32,0,12.54-.29,19.02-.89,4.46-.41,8.09-3.74,8.91-8.14.39-2.1.76-4.22,1.12-6.35.85.35,1.77.59,2.72.7,5.09.56,10.28.99,15.44,1.27,5.19.29,10.4.43,15.47.43,2.31,0,4.62-.03,6.87-.09,5.13-.13,9.32-4.13,9.71-9.24l1.23-16.2,22.53,24.11c1.46,1.56,3.37,2.61,5.47,3,6.32,1.18,11.23,1.82,15.93,2.08,1.78.1,3.54.15,5.23.15,2.64,0,5.21-.12,7.66-.37,1.35-.13,2.63-.54,3.77-1.16.8,6.82,1.68,13.63,2.66,20.39.67,4.61,4.43,8.14,9.07,8.53,2.08.17,4.25.26,6.47.26,1.33,0,2.72-.03,4.12-.09,1.35-.06,2.77-.15,4.19-.27,3.88-.32,7.62-.88,11.08-1.45,4.98-.81,8.58-5.21,8.38-10.26l-.58-14.99,10.2-.72c2.87-.2,5.38-1.61,7.06-3.69l4.68-.33c5.73,12.43,17.98,22.03,36.33,22.03,14.77,0,26.15-6.82,33.2-16.43.57,2.98,1.14,5.96,1.76,8.94.96,4.61,5,7.93,9.7,7.97.81,0,1.63.01,2.44.01,2.31,0,4.28-.04,6.02-.11,3.05-.12,6.23-.39,8.66-.6,5.42-.48,9.46-5.2,9.1-10.63l-.74-11.09,22.08,19.65c1.84,1.64,4.21,2.53,6.65,2.53.29,0,.58-.01.87-.04,9.24-.81,17.65-2.67,25.69-5.71,5.14-1.94,7.75-7.66,5.86-12.81-.59-1.59-1.22-3.18-1.89-4.75,4.77.96,9.69,1.6,14.88,1.93,1.43.09,2.94.15,4.74.19.07,0,.14,0,.21,0,4.46,0,8.4-2.96,9.62-7.28l4.18-14.75,1.17,4.38c1.01,3.77,4.12,6.62,7.97,7.28,2.77.48,5.76.94,8.9,1.15,1.33.09,2.75.13,4.33.13,1.44,0,2.96-.03,4.95-.11,3.92-.14,7.4-2.57,8.89-6.2l2.46-6.01,3.55,18.23c.87,4.49,4.68,7.81,9.24,8.07,1.7.1,3.48.15,5.28.15,3.08,0,6.27-.15,9.62-.43-1.04,5.04-2.05,10.17-3.01,15.42-.98,5.36,2.5,10.52,7.83,11.61,7.19,1.47,14.71,2.21,22.36,2.21,3.01,0,6.07-.12,9.09-.37,4.61-.37,8.37-3.86,9.08-8.43l.79-5.11h12.41l.55,3.98c.59,4.27,3.84,7.68,8.07,8.47,1.7.32,3.39.55,5.08.75l.16.26,1.13-.11c2.46.24,4.93.38,7.46.38,6.29,0,12.75-.7,19.73-2.13,1.13-.23,2.17-.65,3.11-1.21l.42-.04.04-.25c2.88-1.94,4.64-5.31,4.4-8.97-.33-4.82-.7-9.53-1.11-14.13l.22-1.54c.7-4.94,4.46-8.69,9.09-9.63,1.42,3.16,4.43,5.44,8.03,5.84,3.3.36,6.73.54,10.17.54.75,0,1.5,0,2.26-.03,4.01-.09,8.12-.45,12.21-1.08.89-.14,1.74-.39,2.53-.74l.35.05.07-.26c3.21-1.6,5.41-4.85,5.54-8.59l.12-3.29c.8-.56,1.66-.99,2.57-1.31,1.91,7.03,3.97,13.93,6.18,20.62,1.36,4.12,5.22,6.86,9.49,6.86.32,0,.64-.01.96-.04,3.28-.31,6.62-.78,9.94-1.4,3.71-.69,7.31-1.52,11.02-2.52,4.38-1.19,7.4-5.18,7.37-9.71-.02-2.5-.08-5.03-.16-7.57,5.63,5.64,12.79,10.07,21.45,12.63l.46.36.6-.07c5.01,1.37,10.49,2.14,16.46,2.14,9.81,0,20.41-1.98,31.6-5.88,4.8,1.42,9.05,4.46,11.94,8.73.03,1.3.13,2.56.31,3.79.56,3.76,3.21,6.86,6.82,8.03l.17.29.13-.19c5.52,1.67,10.55,2.89,15.34,3.74,5.47.96,10.76,1.45,15.73,1.45,26.52,0,40.82-13.84,43.23-27.55,2.08-11.83-4.23-23.31-16.07-29.25-3.81-1.91-7.67-5.13-7.09-8.42.56-3.22,4.62-4.66,8.38-4.66,1.03,0,2.11.1,3.21.29,2.9.51,5.95,1.64,9.04,3.35,1.53.85,3.19,1.25,4.83,1.25,3.2,0,6.33-1.54,8.26-4.35,6.48-9.46,10.96-20.41,13.33-32.56.03-.08.07-.16.1-.24,2.45-6.59-7.73-27.05-7.73-27.05-1.67-5.85-1.36-12.08.88-17.73Z"/><g class="cls-9"><rect class="cls-6" x="73.26" y="23.72" width="73" height="356.17" transform="translate(-76.32 67.1) rotate(-25.56)"/><rect class="cls-6" x="224.25" y="19.32" width="73" height="356.17" transform="translate(-59.65 131.82) rotate(-25.56)"/><rect class="cls-6" x="384.25" y="19.32" width="73" height="356.17" transform="translate(-43.99 200.85) rotate(-25.56)"/><rect class="cls-6" x="541.25" y="19.32" width="73" height="356.17" transform="translate(-28.63 268.58) rotate(-25.56)"/><rect class="cls-6" x="696.25" y="13.32" width="73" height="356.17" transform="translate(-10.87 334.87) rotate(-25.56)"/><rect class="cls-6" x="848.25" y="5.32" width="73" height="356.17" transform="translate(7.45 399.66) rotate(-25.56)"/><rect class="cls-6" x="995.25" y="-1.68" width="73" height="356.17" transform="translate(24.86 462.4) rotate(-25.56)"/></g><path class="cls-8" d="M175.24,229.42c-.06,0-.12-.01-.18-.02-3.51-.33-6.79-.48-10.05-.48-5.17,0-10.69.4-16.41,1.19-3.21.43-5.96,2.23-7.69,4.84-1.91-3.48-5.61-5.76-9.69-5.76-.05,0-.1,0-.15,0-1.42.01-2.86.08-4.31.19-.32-1.12-.7-2.22-1.14-3.26-.15-.35-.32-.69-.5-1.02-1-1.76-2.43-3.19-4.1-4.18-.45-1.55-1.23-3-2.31-4.23-2.04-2.33-4.98-3.71-8.15-3.79-.65-.01-1.3-.02-1.94-.02-4.45,0-8.42.28-12.12.87-5.18.81-9.03,5.05-9.37,10.32-.01.19-.02.38-.02.57,0,.87,0,1.78-.01,2.72-3.39,1.51-5.71,4.53-6.37,8.01-.32-.99-.76-1.96-1.36-2.85-.07-.11-.14-.21-.22-.32-.08-.1-.15-.21-.23-.31,3.41-2.06,5.94-5.59,6.8-9.95.62-3.11.27-6.32-.97-9.03-1.74-3.8-5.04-6.44-9.06-7.24-.82-.16-1.67-.25-2.53-.25-.14,0-.29,0-.43,0-.82-.35-1.69-.62-2.59-.8-.85-.17-1.72-.25-2.59-.25-3.91,0-7.53,1.7-10.16,4.49-.96-.4-1.96-.7-2.99-.91-1.03-.21-2.09-.31-3.14-.31-2.69,0-5.36.68-7.74,1.98-.07.04-.15.08-.22.12-5.41,3.13-10.8,6.75-16.02,10.76-2.18,1.62-3.67,3.99-4.21,6.75-.48,2.41-.17,4.86.9,7.07.03.06.06.12.09.18,2.49,4.92,5.39,9.22,8.87,13.13,1.59,1.94,3.81,3.26,6.33,3.76.72.14,1.46.22,2.2.22,2.13,0,4.19-.59,5.96-1.72l3.7-2.3,6.02,5.27c1.47,1.34,3.25,2.21,5.27,2.61.72.14,1.45.22,2.18.22,2.08,0,4.11-.59,5.88-1.71,4.3-2.64,7.52-6.08,9.59-10.21.44-.88.76-1.81.96-2.75.68,3.51,1.69,6.87,3.05,10,.09.21.19.41.29.61.87,1.69,2.13,3.08,3.63,4.11.16,2.39.33,4.8.5,7.23.02.28.05.56.1.84.72,4.57,4.23,8.26,8.75,9.2.09.02.19.04.28.05,1.49.26,3.05.4,4.66.4,1.44,0,2.91-.1,4.5-.31.09-.01.18-.02.26-.04,2.78-.44,5.19-1.9,6.85-3.99,2.02,1.95,4.76,3.12,7.71,3.12.15,0,.35,0,.51-.01.05,0,.1,0,.16,0,1.51-.09,3.01-.25,4.46-.48,1.98-.31,3.66-.67,5.25-1.13,4.99-1.41,8.3-6,8.06-11.18-.05-1.06-.19-1.96-.29-2.63-.12-.74-.26-1.47-.42-2.18.19-.17.37-.36.54-.54,1.23,3.17,3.86,5.66,7.24,6.63.27.08.54.14.81.2,6.62,1.31,13.23,1.95,20.2,1.95,2.15,0,4.3-.06,6.4-.18.22-.01.44-.03.66-.06,4.91-.61,8.77-4.32,9.56-9.11.47-2.47.69-5.04.69-7.85,0-2.37-.16-4.61-.48-6.84-.7-5-4.68-8.86-9.74-9.42Z"/><path class="cls-8" d="M823.45,151.99c-.06-.93-.17-1.81-.26-2.51-.29-2.33-.7-4.41-1.23-6.34-1.25-4.75-5.53-8.03-10.52-8.03-.45,0-.91.03-1.36.08-.1.01-.21.03-.31.04-.13.02-.27.04-.4.06-1.9-1.6-4.35-2.56-6.99-2.56-.02,0-.26,0-.26,0-1.63,0-3.18.1-4.73.29-1.51.19-2.86.44-4.11.76-2.35.58-4.33,1.9-5.76,3.67-4.83,1.18-8.25,5.54-8.24,10.48-.03,1.08.03,2.21.18,3.44.19,1.5.51,2.82.77,3.83.31,1.22.82,2.34,1.49,3.34-.41,1.86-.5,3.82-.25,5.82,1.02,8.11,7.51,13.99,15.44,13.99.67,0,1.34-.04,2.02-.13,1.82-.23,4.05-.75,6.23-1.87,1.56.25,3.1.38,4.67.38.75,0,1.51-.03,2.27-.09.17-.01.33-.03.5-.05,4.49-.57,8.2-3.89,9.25-8.26.03-.12.06-.24.08-.36.64-3.24.8-6.24.46-8.92-.05-.37-.1-.73-.17-1.09.95-1.78,1.41-3.84,1.23-5.97Z"/><path class="cls-8" d="M969.43,154.04c-.45-1.76-.97-3.41-1.47-5.01h0c-1.36-4.61-5.59-7.78-10.42-7.78-.75,0-1.5.08-2.24.23-2.2.44-4.36,1.12-6.41,2.04-1.08.47-2.06,1.1-2.9,1.86-1.39-.63-2.93-.97-4.52-.97-.91,0-1.81.11-2.68.34-.14.04-.28.07-.41.12-2.74.83-5.13,1.84-7.28,3.09-2.12,1.13-3.75,2.93-4.7,5.06.02-.09.04-.16.06-.25,1.23-5.11-1.37-10.42-6.19-12.62-1.26-.6-2.49-1.11-3.68-1.61-9.01-3.77-18.4-6.49-27.91-8.09-.62-.11-1.26-.16-1.89-.16-2.93,0-5.65,1.14-7.69,3.08,0-.11.02-.21.02-.31.06-1.44.13-2.94.13-4.45,0-3.2-.24-6.23-.72-9.01-.82-5.35-5.42-9.34-10.89-9.34h-.12c-.22,0-.43,0-.65.02-.81.05-1.62.11-2.43.17-.18-.25-.38-.5-.58-.73-1.88-2.18-4.48-3.53-7.33-3.82-.33-.03-.66-.05-.99-.05-.18,0-.35-.01-.53-.02-.48-.02-.96-.04-1.44-.04-3.3,0-6.75.26-10.55.8-4.32.55-7.79,3.57-9.09,7.58-1.14.2-2.28.4-3.43.62-.2.04-.39.08-.58.13-4.85,1.21-8.28,5.44-8.46,10.36-.22,4.17.2,8.2,1.27,12,.77,2.68,2.51,4.9,4.77,6.32.07,1.72.27,3.33.59,4.88,0,.04.02.08.03.12.29,1.32.82,2.54,1.54,3.63-.3,1.28-.46,2.61-.46,3.98,0,9.41,7.43,16.5,17.27,16.5,5.03,0,9.71-1.95,13.07-5.08,4.49-.3,8.38-3.3,9.83-7.66.04-.14.09-.27.13-.41.6-2.11.94-4.11,1.03-6.11,0-.15.01-.3.01-.45,0-2.02-.55-3.98-1.56-5.67.05-.16.09-.33.13-.49.03-.12.06-.24.08-.36.19-.92.34-1.88.44-2.86,2.04-.31,3.89-1.19,5.41-2.45-1.13,3.52-1.88,7.06-2.22,10.56-.02.2-.03.41-.04.61-.18,4.68,2.53,8.88,6.9,10.71l.22.09c.68.28,1.38.49,2.11.62l1.32.24c-.42,5.4,1.02,10.92,4.27,16.06.04.06.08.12.12.18,1.21,1.83,2.95,3.25,5,4.11.52.22,2.11.89,4.25.89.11,0,.22,0,.34,0,2.99-.08,5.89-.56,8.63-1.4,3.21-.88,5.91-3.24,7.22-6.38,1-2.39,1.15-4.96.46-7.35-.06-.26-.11-.5-.14-.71.12-.02.26-.03.41-.04.18-.02.36-.04.54-.06,3.37-.49,6.3-2.44,8.05-5.35.1-.17.21-.36.3-.54.38-.73.85-1.64,1.29-2.68.52-1.24.98-2.57,1.42-4.08-.09,1.19,0,2.42.31,3.64l.03.13c.08.29.16.58.27.87,1.42,3.96,3.02,7.85,4.79,11.61,2.3,4.8,7.05,7.78,12.39,7.78,1.16,0,2.31-.15,3.42-.43.43-.11,1.3-.33,2.36-.82,1.73-.79,3.3-1.58,4.65-2.34.18-.1.35-.2.52-.31.6-.38,1.15-.82,1.65-1.29.11.01.23.02.34.03.24.02.49.03.73.03.12,0,.25,0,.38,0,1.3-.05,2.61-.25,3.98-.6,1.45-.37,2.72-.84,3.88-1.44.28-.14.54-.3.8-.46,3.72-2.39,5.64-6.67,4.99-10.89-.31-2.58-.83-5.29-1.53-8.06Z"/><path class="cls-8" d="M1017.49,125.36c-6.16-3.06-11.91-5.25-17.58-6.7-.98-.28-1.99-.43-3.02-.43-3.88,0-7.54,2.07-9.56,5.4-.05.09-.11.18-.16.27-4.2,7.46-7.86,15.52-11.2,24.63-.95,2.52-1.24,5.25-.83,7.9.67,4.41,3.21,8.35,6.96,10.82,5.82,3.83,12.38,7.34,20.04,10.74,1.45.66,2.98.99,4.55.99.55,0,1.1-.04,1.63-.12,1.68-.25,4.16-1.04,6.39-3.31.15-.16.3-.32.45-.48,2.52-2.93,4.51-6.5,5.92-10.61.65-1.73.82-3.58.53-5.5-.45-2.96-2.03-5.58-4.46-7.36-.16-.12-.33-.24-.5-.35l-.43-.28,5.94-9.73c.1-.16.19-.32.28-.49,1.5-2.8,1.52-5.35,1.27-7.02-.56-3.65-2.91-6.8-6.2-8.36Z"/><path class="cls-8" d="M1081.03,130.26c-.19-.79-.47-1.57-.83-2.3-1.24-2.5-3.42-4.46-6.04-5.43-3.01-1.16-5.94-2.05-8.96-2.73-2.24-.5-4.47-.87-6.82-1.13-.42-.05-.84-.07-1.26-.07-3.04,0-5.81,1.21-7.82,3.22-1.08-.24-2.15-.48-3.21-.72-.8-.18-1.62-.27-2.43-.27-4.76,0-8.97,3.04-10.47,7.56-.03.09-.06.17-.08.26-.32,1.07-.54,2.04-.74,2.94-.85,3.81-1.21,7.65-1.06,11.43.06,2.15.73,4.16,1.87,5.84-.22.64-.41,1.31-.57,1.99-1.86,8.28,2.19,16.19,9.77,19.51.62,3.29,2.73,6.23,5.91,7.82,1.88.96,3.81,1.68,6.08,2.28.12.03.24.06.36.09.79.18,1.6.27,2.41.27,4.55,0,8.62-2.76,10.27-6.92,2.13-5.08,4.16-10.26,6.06-15.46,4.33-.04,8.26-2.63,9.96-6.52,1.3-2.86,2.3-6.05,3.05-9.74,1.02-4.84-1.33-9.65-5.46-11.91Z"/><path class="cls-8" d="M772.57,144.91c-.04-.06-.08-.12-.12-.18-2.04-3.02-5.44-4.82-9.09-4.82-1.29,0-2.56.22-3.82.68-1.3.48-2.57,1.06-3.85,1.76-.28-.28-.57-.55-.88-.8-.16-.13-.32-.26-.48-.39.09-.23.19-.48.27-.74.1-.3.19-.61.26-.92.17-.72.26-1.35.32-1.81.02-.12.03-.23.03-.26.21-.93.29-1.88.23-2.83-.06-1.05-.25-1.91-.37-2.42,0-.06-.02-.12-.02-.18-.33-2.29-1.25-3.9-1.63-4.56-1.43-2.65-3.51-4.77-6.01-6.14-.74-.4-1.42-.67-1.93-.85-1.89-.96-4-1.44-6.32-1.44-.83,0-1.56.06-2.16.12-.37.04-.73.09-1.1.17-2.2.47-4.16,1.29-5.81,2.43-.34.23-.69.51-1,.79-1.59,1.42-2.68,2.66-3.45,3.95l-.05.08c-.5.73-1.54,2.25-2.13,4.38-.46,1.66-.62,3.32-.48,4.93,0,.39.02.99.13,1.7.06.43.15.85.27,1.26.43,1.55,1.19,3.83,2.81,6.09-.09.22-.16.42-.23.6-.13,0-.26.02-.38.03-.21.02-.41.04-.62.07-.1.01-.19.04-.29.05-.55-1.25-1.33-2.41-2.33-3.41-.17-.17-.35-.34-.54-.5-3.07-2.65-6.51-4.9-10.25-6.7-1.48-.72-3.14-1.1-4.79-1.1-.93,0-1.86.12-2.74.35l2.17-5.03c.1-.23.19-.47.28-.71.17-.48.65-1.86.65-3.7,0-4.4-2.64-8.37-6.72-10.12-.23-.1-.46-.19-.7-.27-4.76-1.64-9.12-2.64-13.25-3.07-.4-.04-.81-.07-1.21-.07-5.01,0-9.36,3.32-10.64,8.1-1.3,4.68-2.47,9.39-3.51,14.1-.08-.26-.16-.53-.24-.8-.78-2.42-1.72-5-2.88-7.89-1.61-4.29-5.7-7.15-10.34-7.15-.96,0-1.9.12-2.82.37-1.04.26-1.98.56-2.83.84-2.73.88-5.11,1.87-7.06,2.95-2.19,1.16-3.86,2.98-4.85,5.12-2.01-1.75-4.62-2.78-7.4-2.78-1.17,0-2.32.18-3.43.54-.05.02-.1.03-.14.05-3.28,1.12-8.03,3.03-12.07,5.82-4.08,2.74-5.86,7.87-4.33,12.6l.04.11c.1.31.21.61.34.9,2.66,6.18,5.61,12.24,8.78,18,2.74,4.99,8.02,8.09,13.78,8.09,1.69,0,3.37-.26,5-.79.48-.15,1.32-.43,2.31-.94,3.15-1.54,6.17-3.21,8.33-4.59,1.5-.95,2.7-2.21,3.57-3.65.78.17,1.59.26,2.42.26.34,0,.68-.02,1.05-.05,1.82-.17,3.66-.56,5.48-1.15,1.02-.33,2.41-.85,3.86-1.6.87,3.33,3.29,6.18,6.67,7.45,3.21,1.24,6.75,2.06,10.52,2.43.39.04.79.06,1.18.06,2.47,0,4.84-.85,6.73-2.31,3.14,2.16,6.95,3.34,11.01,3.34,2.75,0,5.42-.56,7.94-1.59.08.19.14.38.23.56l.13.29c.27.61.67,1.52,1.3,2.53.63,1.04,1.3,1.78,1.74,2.22,0,0,0,0,0,0,1.95,2.31,4.34,3.25,5.41,3.62.81.32,1.78.69,2.88,1,1.04.31,2.13.46,3.23.46,1.01,0,1.8-.13,2.18-.19,1.23-.18,2.34-.46,3.33-.75l2.38,2.71c1.9,2.16,4.64,3.39,7.51,3.39.13,0,.26,0,.39,0,2.58-.1,5-1.19,6.78-3.02.45-.4,1.55-1.32,2.16-1.83,1.41-1.18,1.8-1.51,2.24-1.95.05-.05.1-.1.14-.15.13-.14.39-.41.71-.77,2.01,2.17,4.87,3.49,8.02,3.49.83,0,1.67-.09,2.48-.28.03,0,.07-.02.1-.02,3.57-.87,6.78-2.03,9.83-3.54,4.9-2.42,7.24-8.04,5.53-13.2-1.92-6.05-4.56-11.72-7.86-16.84Z"/><path class="cls-8" d="M1086.73,139.45c1.58,6.96-10.52,26.52-10.52,26.52-2.24,5.65-2.55,11.89-.88,17.73,0,0,10.19,20.46,7.73,27.05-6.17,16.6-59.24,38.82-59.24,38.82l-39.18,58.33-6.64-11.1c-4.41-7.37-12.73-11.48-21.27-10.5l-39.98,4.58-38.04-29.71-13.96,16.52-4.02-3.79c-5.83-5.49-15.41-2.71-17.4,5.05l-1.58,6.15-31.56-4.71c-6.31-.94-12.17,3.43-13.07,9.75l-3.54,24.89-31.85,3.13-30.93-50.76-118.62-34.41-46.12,47.04-71.83-1.28-85.48,5.95-126.39-33.57-50.09,18.95-26.98,26.82s-10.84-1.2-13.44-3.5c-6.51-5.76-12.1-30.48-16.64-30.52-6.21-.06-28.07-1.91-28.07-1.91,0,0-6.33-2.41-7.3,1.54-1.09,4.41-4.09,6.41-4.09,6.41l-42.65-15.8s-6.35,1.8-7.99,0c-1.83-2-8.48-3.29-10.71-1.74-3.65,2.54-38.65-9.46-38.65-9.46l-5-16-6,7s-1.74-1.62-1.89-2.36c-1.33-6.52,7.15-25.63,7.15-25.63,1.12-4.03,1.83-8.96-.89-12.15-3.87-4.53-9.37-6.09-9.68-21.78-.51-25.95,43.79-94.12,43.79-94.12l20.52,54.04,140.96-33.22,336.04-5.78,34.91,58.91,8.33-10.54,13.05-9.45,48.53-1.6.26,10.14,46.96,8.11,42.9-4.92,7.67-2.44s4.95.96,6.4,1.78c7,4,11.12-1.06,14-3.22,8-6,16.89-7.45,23-5,10,4,9-5,18-16,7.71-9.43,47.11,17.67,47.11,17.67l26.22,4.09s22.67-1.76,26.31,3.94c4.05,6.36,9.37,2.3,14.37,1.3,3.47-.69,8.24-.12,12-2,5.11-2.55,13.07-.62,18.16,1.11,2.83.96,5.93-.27,7.36-2.89,3.89-7.13,11.4-19.88,16.24-21.53,1.28-.44,5.35-.91,5.35-.91l23.89,12.23,1.71,2.19c2.46,3.16,7.36,2.67,9.15-.91l3.14-6.29,26,.22,19,8s5.53,3.55,5.98,5.54Z"/><path class="cls-8" d="M1079.7,201.03c-15.58-13.18-31.5-21.27-47.31-24.04-4.07-.72-8.16-1.08-12.14-1.08-17.82,0-32.15,7.18-41.77,17.14-1.25-1.97-3.16-3.5-5.49-4.22-11.59-3.59-22.58-5.41-32.67-5.41-31.74,0-51.42,18.04-58.12,39.59-.43-.1-.86-.17-1.3-.21,2.3-15.08,3.54-29.93,3.67-44.19.02-2.73-1.07-5.35-3.02-7.25-1.87-1.82-4.38-2.84-6.98-2.84-.12,0-.23,0-.35,0-37.08,1.3-68.19,4.26-95.13,9.04-4.67.83-8.11,4.82-8.25,9.56-.08,2.67-.14,5.56-.07,8.64.07,3.13.23,6.35.48,9.72-1.2-.39-2.44-.7-3.72-.87-.09-.01-.19-.02-.28-.03-9.18-1-16.98-1.46-24.56-1.46-6.02,0-11.29.24-16.08.74h-.06c-8.05.71-14.96,6.15-17.64,13.89-2.36,6.66-4.6,13.47-6.73,20.47l-3.07-54.78c-.26-4.57-3.58-8.38-8.06-9.26-5.2-1.02-10.87-1.71-17.33-2.13-3.75-.24-7.67-.36-11.65-.36h-.35c-4.17,0-7.9,2.59-9.36,6.49l-8.78,23.45-11.5-27.75c-1.34-3.23-4.27-5.53-7.72-6.06-2.46-.38-4.93-.64-7.4-.84.72-2.35.6-4.97-.57-7.35-5.31-10.8-12.53-20.82-22.02-30.54,10.45-8.41,15.67-21.02,13.78-33.91-2.53-17.27-18.57-34.69-48.71-34.69-4.17,0-8.55.33-13.03.99-10.14,1.48-20.84,4.57-31.82,9.18-6.37,2.61-10.9,8.19-12.38,14.71-4.26-.76-9.08-1.6-13.74-2.28-17.84-2.62-35.42-3.95-52.27-3.95-1.9,0-3.8.02-5.72.05-7.52.17-13.97,4.01-17.57,9.84-.36-6.19-.9-12.28-1.62-18.24-.33-2.71-1.75-5.16-3.93-6.8-1.74-1.3-3.85-1.99-5.99-1.99-.55,0-1.09.04-1.64.13-36.59,6.08-67.07,13.04-93.16,21.27-1.06.34-2.03.84-2.89,1.47-.78-7.44-1.81-14.74-3.09-21.83-.49-2.68-2.05-5.05-4.32-6.56-1.65-1.09-3.57-1.66-5.52-1.66-.74,0-1.48.08-2.21.25-36.18,8.2-66.2,16.91-91.77,26.64-4.43,1.69-7.07,6.25-6.31,10.94.25,1.55.52,3.17.83,4.84-1.6-1.08-3.52-1.71-5.58-1.71h-.02c-4.59,0-9.9.03-14.95.19-20.05.65-39.47,2.81-57.76,6.44-4.43.9-8.23,3.05-11.12,5.99-.63-16.92-13.11-34.62-41.03-37.24-2.31-.22-4.75-.33-7.23-.33-5.5,0-11.46.53-17.67,1.57-9.72,1.59-16.99,9.46-17.68,19.13,0,.03,0,.07,0,.1-1.69,27.8-1.13,55.98,1.65,83.69.9,9.52,8.38,17.39,17.79,18.72,4.7.66,9.28,1,13.62,1,29.78,0,44.55-15.38,45.98-30.62.94-9.97-3.58-19.48-12.3-26.46,4.59-1.68,8.52-4.89,11.44-9.22,1.89,24.8,5.59,48.91,11.05,71.7,2.09,9.03,9.85,15.49,19.33,16.08.05,0,.1,0,.15,0,5.51.26,11.03.4,16.42.4,3.55,0,7.14-.06,10.66-.17,8.84-.28,17.35-.87,26.04-1.78,1.16-.12,2.25-.44,3.25-.92.52,25.29,2.44,49.97,5.75,73.48.64,4.55,4.29,8.07,8.86,8.55,5.63.59,11.43.89,17.25.89,6.32,0,12.54-.29,19.02-.89,4.46-.41,8.09-3.74,8.91-8.14.39-2.1.76-4.22,1.12-6.35.85.35,1.77.59,2.72.7,5.09.56,10.28.99,15.44,1.27,5.19.29,10.4.43,15.47.43,2.31,0,4.62-.03,6.87-.09,5.13-.13,9.32-4.13,9.71-9.24l1.23-16.2,22.53,24.11c1.46,1.56,3.37,2.61,5.47,3,6.32,1.18,11.23,1.82,15.93,2.08,1.78.1,3.54.15,5.23.15,2.64,0,5.21-.12,7.66-.37,1.35-.13,2.63-.54,3.77-1.16.8,6.82,1.68,13.63,2.66,20.39.67,4.61,4.43,8.14,9.07,8.53,2.08.17,4.25.26,6.47.26,1.33,0,2.72-.03,4.12-.09,1.35-.06,2.77-.15,4.19-.27,3.88-.32,7.62-.88,11.08-1.45,4.98-.81,8.58-5.21,8.38-10.26l-.58-14.99,10.2-.72c5.32-.38,9.4-4.85,9.29-10.18,0-.3-.03-.59-.04-.88,3.95,15.65,17.12,29.08,38.82,29.08,14.77,0,26.15-6.82,33.2-16.43.57,2.98,1.14,5.96,1.76,8.94.96,4.61,5,7.93,9.7,7.97.81,0,1.63.01,2.44.01,2.31,0,4.28-.04,6.02-.11,3.05-.12,6.23-.39,8.66-.6,5.42-.48,9.46-5.2,9.1-10.63l-.74-11.09,22.08,19.65c1.84,1.64,4.21,2.53,6.65,2.53.29,0,.58-.01.87-.04,9.24-.81,17.65-2.67,25.69-5.71,5.14-1.94,7.75-7.66,5.86-12.81-.59-1.59-1.22-3.18-1.89-4.75,4.77.96,9.69,1.6,14.88,1.93,1.43.09,2.94.15,4.74.19.07,0,.14,0,.21,0,4.46,0,8.4-2.96,9.62-7.28l4.18-14.75,1.17,4.38c1.01,3.77,4.12,6.62,7.97,7.28,2.77.48,5.76.94,8.9,1.15,1.33.09,2.75.13,4.33.13,1.44,0,2.96-.03,4.95-.11,3.92-.14,7.4-2.57,8.89-6.2l2.46-6.01,3.55,18.23c.87,4.49,4.68,7.81,9.24,8.07,1.7.1,3.48.15,5.28.15,3.08,0,6.27-.15,9.62-.43-1.04,5.04-2.05,10.17-3.01,15.42-.98,5.36,2.5,10.52,7.83,11.61,7.19,1.47,14.71,2.21,22.36,2.21,3.01,0,6.07-.12,9.09-.37,4.61-.37,8.37-3.86,9.08-8.43l.79-5.11h12.41l.55,3.98c.59,4.27,3.84,7.68,8.07,8.47,4.61.86,9.13,1.28,13.84,1.28,6.29,0,12.75-.7,19.73-2.13,4.9-1.01,8.3-5.48,7.96-10.47-1.87-27.58-5.08-51.43-9.75-72.42,4.57.42,9.22.8,13.91,1.12l3.18,42.64c.36,4.81,4.09,8.67,8.88,9.2,3.3.36,6.73.54,10.17.54.75,0,1.5,0,2.26-.03,4.01-.09,8.12-.45,12.21-1.08,4.75-.73,8.31-4.73,8.48-9.53l.46-13.11c2.5,10.01,5.3,19.76,8.41,29.13,1.36,4.12,5.22,6.86,9.49,6.86.32,0,.64-.01.96-.04,3.28-.31,6.62-.78,9.94-1.4,3.71-.69,7.31-1.52,11.02-2.52,4.38-1.19,7.4-5.18,7.37-9.71-.02-2.5-.08-5.03-.16-7.57,9.07,9.08,22.11,15.06,38.96,15.06,12.4,0,26.06-3.15,40.6-9.37,3.67-1.57,6.06-5.18,6.07-9.18,0-4.67-.48-8.91-1.48-12.97-1.11-4.48-5.13-7.59-9.7-7.59-.14,0-.29,0-.44,0-.68.03-1.33.03-1.91.03h-.26c-6.27,0-9.55-2.08-9.55-4.13,0-1.85,2.82-4.49,9.08-4.53,1.36-.01,2.67-.3,3.86-.81,5.23,8.97,14.23,16.48,26.44,21.64,4.66,1.96,6.82,5.09,6.47,7.04-.22,1.23-1.88,2.67-5.85,2.67-1.1,0-2.3-.11-3.58-.34-.62-.11-1.39-.24-2.19-.43-.76-.17-1.51-.26-2.26-.26-4.27,0-8.18,2.75-9.52,6.97-.66,2.08-1.19,4.27-1.62,6.71-.72,4.09-.82,7.74-.31,11.17.57,3.82,3.29,6.98,6.99,8.1,5.58,1.69,10.63,2.92,15.47,3.77,5.47.96,10.76,1.45,15.73,1.45,26.52,0,40.82-13.84,43.23-27.55,2.08-11.83-4.23-23.31-16.07-29.25-3.81-1.91-7.67-5.13-7.09-8.42.56-3.22,4.62-4.66,8.38-4.66,1.03,0,2.11.1,3.21.29,2.9.51,5.95,1.64,9.04,3.35,1.53.85,3.19,1.25,4.83,1.25,3.2,0,6.33-1.54,8.26-4.35,6.56-9.58,11.08-20.69,13.43-33.02.67-3.54-.61-7.18-3.37-9.51ZM54.69,161.65h-.01c-.22-.02-.3-.1-.36-.17-.06-.08-.12-.17-.1-.39.03-.3.21-.47.49-.47h.07c.22.02.3.1.36.17.06.08.12.17.1.39-.03.29-.2.47-.55.47ZM56.58,108.67h-.02c-.06,0-.21-.02-.35-.19-.14-.17-.12-.32-.12-.38.03-.34.39-.64.59-.64.12.02.29.13.42.29.13.16.21.35.2.47-.03.33-.37.45-.72.45ZM552.1,105.56c.06-.08.13-.16.35-.19.05,0,.09,0,.11,0,.18,0,.42.05.48.44.03.22-.02.32-.08.39-.06.08-.13.16-.35.19-.03,0-.07,0-.11,0-.18,0-.42-.05-.48-.45-.03-.22.02-.31.08-.39ZM190.7,196.6c-.61.15-1.19.37-1.74.62-.07-.91-.15-1.83-.27-2.74-.64-4.92-4.78-8.62-9.73-8.71l-15.67-.29-.07-.72,13.75.52c.13,0,.26,0,.38,0,5.07,0,9.37-3.82,9.93-8.9.27-2.42.36-4.66.29-6.85-.05-1.47-.17-3.01-.37-4.56-.64-4.99-4.9-8.72-9.92-8.72-.05,0-16.96.28-16.96.28l-.53-5.23,24.66-.79c4.69-.15,8.65-3.55,9.51-8.17,1.54-8.28,2.32-16.54,2.33-24.62,1.04,3.44,2.21,7.06,3.53,10.92,1.39,4.07,5.22,6.77,9.46,6.77.28,0,.56-.01.85-.04,6.48-.55,13.17-1.23,19.93-2.05l11.09,41.29c.46,1.71,1.35,3.21,2.52,4.4-1.62,1.61-2.7,3.76-2.93,6.16-.21,2.22-.41,4.45-.59,6.69l-.58-.02c-1.36-.05-2.76-.09-4.2-.09-17.27,0-31.89,1.58-44.68,4.83ZM342.99,176.87c-3.48-.19-6.84-.29-9.99-.29-2.86,0-5.65.08-8.3.24-5.38.32-9.53,4.85-9.4,10.23l.82,32.65c-9.1-12.93-19.41-26.53-31.29-41.29-1.47-1.83-3.54-3.06-5.81-3.52,2.47-2.2,3.77-5.55,3.24-8.99l-6.24-40.57c7.24-1.57,14.38-3.24,21.76-5.11,2.3-.58,4.23-1.93,5.57-3.73.99,4.34,2.15,8.93,3.55,13.94,1.21,4.34,5.15,7.32,9.63,7.32.09,0,.18,0,.26,0,6.5-.17,13.22-.47,20.02-.88l8.31,40.14c-.71-.05-1.43-.11-2.13-.15ZM410.61,261.11c-.23,0-.47,0-.71.02l-9.37.66-.17-4.54,20.71-.84c-.84,3.3-1.26,6.68-1.26,10.01,0,.29.01.57.02.86-1.52-3.68-5.13-6.18-9.23-6.18ZM499.2,188.3c-8.93,2.61-15.08,10.97-14.97,20.37,0,.1,0,.2,0,.29l.24,5.7c.29,6.98.73,13.98,1.31,21-6.63-4.32-15.47-7.01-26.71-7.01-5.55,0-10.46.84-14.79,2.31-.03-4.34-.21-8.77-.58-13.3-.34-4.17-.82-8.4-1.42-12.57-.71-4.93-4.94-8.57-9.89-8.57-.1,0-.2,0-.3,0-1.95.06-3.94.13-5.93.22-6.1.27-12.51.68-19.6,1.26-12.84,1.05-25.46,2.63-37.47,4.7-1.05.18-2.06.44-3.04.76.03-5.32-.01-10.56-.13-15.71-.01-.63-.09-1.24-.21-1.83.72-.09,1.45-.19,2.17-.3,3.95-.61,7.98-1.5,11.96-2.65,4.62-1.33,7.63-5.76,7.18-10.55l-3.87-40.86c7.34-1.14,14.56-2.4,22.02-3.83.85-.16,1.66-.43,2.41-.79-.82,16.23-.79,32.2.09,47.73.46,9.26,6.95,16.99,16.17,19.25.05.01.1.02.15.04,9.02,2.07,17.72,3.71,26.61,5.02,8.75,1.29,17.24,2.22,25.94,2.86.25.02.49.03.74.03,4.58,0,8.62-3.13,9.71-7.64.51-2.11.91-4.13,1.21-6.18.23-1.58.39-3.21.47-4.82.24-4.95-3.18-9.33-8.04-10.3l-15.37-3.06.06-.73,13.44,2.95c.72.16,1.44.23,2.15.23,4.34,0,8.3-2.84,9.58-7.16.69-2.33,1.18-4.52,1.5-6.69.21-1.46.36-2.99.44-4.55.25-5.08-3.35-9.55-8.38-10.37l-16.58-2.71.41-5.24,24.41,3.59c.49.07.98.11,1.46.11,4.1,0,7.86-2.53,9.35-6.46,1.36-3.59,2.56-7.21,3.61-10.84,3.83,19.59,8.83,39.14,14.97,58.4.33,1.02.81,1.96,1.41,2.79-7.67.92-15.67,2.62-23.89,5.1ZM533.69,227.64c-.06.07-.15.14-.31.15h-.1c-.29,0-.49-.2-.5-.49,0-.22.06-.31.12-.38.06-.07.15-.14.35-.15h.06c.29,0,.49.2.5.49,0,.22-.06.31-.12.38ZM551.79,183.92c3.79-1.95,6.04-6.18,5.28-10.59l-1.89-10.95,24.01,17.25c1.71,1.23,3.76,1.88,5.83,1.88.63,0,1.27-.06,1.9-.18.23-.04.45-.1.67-.14l-3.4,23.38c-2.41-3.89-5.56-7.43-9.39-10.47-6.22-4.93-14.02-8.36-23.02-10.18ZM572.48,254.72c1.79-1.16,3.45-2.45,4.99-3.83l-1.27,8.75c-1.19-1.65-2.42-3.29-3.71-4.93ZM743.22,260.38c-.27,0-.52-.24-.52-.52s.24-.52.52-.52.52.24.52.52-.24.52-.52.52Z"/><path class="cls-3" d="M192.31,145.66c1.36-.46,3.13-.75,5.69.8,2.55,1.55.2.83,4.52,2.25,4.31,1.41,4.08.06,6.03.69s2.76,1.26,5.42,4.28,3.05,3.72,6.62,4.7c3.57.99,3.63-.39,4.51-2.49.88-2.1.1-4.85-.7-9.02s-.98-4.94.21-6.77,3.38-2.04,3.81-1.88,1.57,1.2,4.39,1.08,3.33-.51,4.03.34.26.78.98.91.81.52.93.97-2.02,1.17-1.5,1.37,2.03-.12,1.89.68-2.38,1.21-3.99,2.24-2.85,1.26-2.39,2.53,2.31,2.61,3.11,7.69c.8,5.08.61,4.39-.71,7.76-1.31,3.38-2.93,2.71-3.23,1.69s-.58,1.4-2.26,3.02-3.59,3.09-6.38,2.86-4.14-.45-4.14-.45c0,0-2.55,5.75-1.23,10.46,1.32,4.71,3.84,12.79,4.57,14.5s1.52,3.52,2.95,3.98,2.9,1.92,3.06,2.51.4,1.75-.15,1.78-1.38-1.42-1.56-1.06-.23,1.57-1.04,1.94-1.74.99-2.41-.11-1.14-1.95-1.62-2.35-1.1.86-3.09-5.62-4.88-15.22-5.74-18.09c-.85-2.87-2.35-.38-3.58.11s-4.94,2.33-7.49,1.12-5.72-3.24-5.72-3.24c0,0,3.35,7.83,5.16,13.47s1.94,5.22,3.5,7.4,5.96,6.65,8.28,7.83,2.53,1.6,2.46,1.84-.31,1.08-.93,1.03-1.3-.28-1.12.26.26,1.57-.92,1.18-.43-.16-1.74-1.94-6.68-7.47-8.39-8.85-2.02-1.2-2.02-1.2l-.98-2.91s-1.05-.21.06,3.1,3.18,8.45,4.09,9.16,1.14,1.16,3.06.82c1.92-.34,2.01.72,1.9.94s-.23,1.09-1.43,1.46-3.42,1.26-4.65-.51-2.36-3.12-3.9-7.57-3.39-5.6-3.86-7.36.29-7.1-1.15-10.15c0,0-3.31-1.79-4.73-6.8,0,0-.63,1.71-.35,4.57s.78,5.67-1.6,6.43-2.74.88-2.74.88c0,0,3.1-4.77,3.05-8.59-.04-3.81-1.05-6.22.24-12.28.98-4.59.16-3.57.54-8.14.22-2.57.9-3.7,1.25-4.34.25-.45.29-.99.09-1.47-.58-1.43-1.32-4.19-.5-6.02.59-1.3.93-2.57,3.51-3.44Z"/><path class="cls-1" d="M199.89,155.39c.39-.02.77-.12,1.12-.28,1.23-.55,4.21-1.78,5.78-1.48,1.73.34,5.12,1.64,8.46,4.1s4.75,3.44,5.92,3.73c2.41.6,4.52.24,5.4-1.86s1.55-3.77.37-7.85c-1.15-3.98-2.41-8.08-1.03-10.01,1.27-1.78,1.39-3.49,1.81-3.34s2.26,1.01,5.08.89,3.33-.51,4.03.34.26.78.98.91.81.52.93.97-2.02,1.17-1.5,1.37,2.03-.12,1.89.68-2.38,1.21-3.99,2.24-2.85,1.26-2.39,2.53,2.31,2.61,3.11,7.69c.8,5.08.61,4.39-.71,7.76-1.31,3.38-2.93,2.71-3.23,1.69s-.58,1.4-2.26,3.02-3.59,3.09-6.38,2.86-4.14-.45-4.14-.45c0,0-2.55,5.75-1.23,10.46,1.32,4.71,3.84,12.79,4.57,14.5s1.52,3.52,2.95,3.98,2.9,1.92,3.06,2.51.4,1.75-.15,1.78-1.38-1.42-1.56-1.06-.23,1.57-1.04,1.94-1.74.99-2.41-.11-1.14-1.95-1.62-2.35-1.1.86-3.09-5.62-4.88-15.22-5.74-18.09c-.85-2.87-2.35-.38-3.58.11s-4.94,2.33-7.49,1.12-5.72-3.24-5.72-3.24c0,0,3.35,7.83,5.16,13.47s1.94,5.22,3.5,7.4,5.96,6.65,8.28,7.83,2.53,1.6,2.46,1.84-.31,1.08-.93,1.03-1.3-.28-1.12.26.26,1.57-.92,1.18-.43-.16-1.74-1.94-6.68-7.47-8.39-8.85-2.02-1.2-2.02-1.2l-.98-2.91s-1.05-.21.06,3.1,3.18,8.45,4.09,9.16,1.14,1.16,3.06.82c1.92-.34,2.01.72,1.9.94s-.23,1.09-1.43,1.46-3.42,1.26-4.65-.51-2.36-3.12-3.9-7.57-3.39-5.6-3.86-7.36.29-7.1-1.15-10.15c0,0-3.31-1.79-4.73-6.8,0,0-.63,1.71-.35,4.57s.78,5.67-1.6,6.43-2.74.88-2.74.88c0,0,3.1-4.77,3.05-8.59-.04-3.81-.84-5.26.45-11.32.98-4.59,2.47-1.11,3.23-3.63s2.84-7.71,4.18-9.2c1.26-1.41,3.75-1.73,4.86-1.8Z"/><path class="cls-2" d="M32.99,230.03c-.14-.28-.15-.54-.1-.79s.17-.54.39-.69c4.75-3.66,9.77-7.07,15.04-10.11,1.29-.7,2.74-.93,4.15-.65,1.11.22,2.15.75,3,1.62,5.61,5.84,10.77,12.04,15.59,18.68.25.37.28.82.08,1.23-1.27,2.56-3.27,4.59-5.96,6.23-.29.2-.55.21-.8.16-.18-.04-.37-.07-.53-.23l-11.71-10.24-10.06,6.25c-.22.15-.55.21-.86.15-.25-.05-.48-.16-.63-.38-2.93-3.26-5.46-6.96-7.61-11.22ZM66.29,223.22c-1.78-.35-3.51-1.97-2.95-4.8s2.91-4.34,4.87-3.95c.92.18,1.76.8,2.26,1.79,1.29-.7,2.42-.93,3.28-.75,1.78.35,2.6,2.37,2.17,4.52-.65,3.26-3.05,4.12-4.78,3.78-.98-.2-1.7-.78-1.75-1.5-.61.84-1.89,1.16-3.12.91Z"/><path class="cls-1" d="M109.1,241.75l-2.76,20.57c-.04.47-.38.87-.83.94-2.2.29-4.22.32-6.12-.02-.48-.1-.83-.5-.9-.95-.38-5.36-.75-10.61-.99-15.83l-2.81,1.19-.23.04c-.45.07-.95-.14-1.19-.62-1.27-2.92-2.17-6.06-2.7-9.44-.08-.51.2-.95.69-1.15,1.91-.7,3.87-1.42,5.9-2.08-.05-3.28-.04-6.51-.03-9.69.03-.52.36-.98.93-1.07,3.94-.62,8.07-.81,12.35-.73.64.02,1.13.57,1.06,1.22l-.84,6.36,4.56-1.06.11-.02c.45-.07.9.2,1.14.63.55,1.3.95,2.74,1.17,4.14.17,1.07.22,2.16.22,3.25-.05.41-.28.79-.66.97l-8.07,3.35ZM132.7,242.14c.23,1.46.34,2.89.28,4.34-.03.52-.37.92-.88,1-1.34.27-2.68.54-4.04.75-3.21.51-6.34.77-9.44.91-.46.01-.91-.26-1.04-.76-.25-.88-.51-1.77-.66-2.72-.18-1.13-.25-2.33-.21-3.54-.01-.46.32-.92.77-.99,1.88-.53,3.83-.95,5.86-1.27,2.53-.4,5.15-.64,7.86-.66.46-.01.92.32,1.04.76.17.72.34,1.45.46,2.18ZM129.29,255.65c.25.88.45,1.78.6,2.73.08.51.16,1.01.18,1.53s-.31.97-.81,1.11c-1.32.38-2.67.65-4.07.87-1.13.18-2.32.31-3.52.38-.52.02-.97-.31-1.11-.81-.09-.56-.24-1.17-.33-1.74-.12-.79-.19-1.59-.25-2.33-.02-.52.36-1.04.92-1.13,2.42-.38,4.83-.82,7.12-1.35l.11-.02c.51-.08,1.02.24,1.16.74Z"/><path class="cls-2" d="M168.15,252.88c-6.1,0-12.15-.55-18.25-1.76-.38-.11-.71-.44-.77-.88-.28-1.54-.38-3.19-.38-4.78,0-1.48.11-3.02.33-4.56.11-.44.44-.82.88-.88,5.17-.71,10.23-1.1,15.06-1.1,3.13,0,6.16.17,9.13.44.49.05.88.44.93.88.28,1.87.38,3.68.38,5.44,0,2.14-.16,4.18-.55,6.16-.05.49-.49.82-.93.88-1.92.11-3.9.17-5.83.17Z"/><path class="cls-2" d="M637.57,160.01c-2.62.84-5.56-.09-6.93-2.6-3.05-5.55-5.85-11.3-8.36-17.14l-.04-.11c-.15-.46,0-1,.41-1.26,2.51-1.75,5.95-3.36,9.68-4.63.57-.18,1.23.11,1.47.66l6.4,16.33,3.06-1.43.11-.04c.51-.17,1.08.03,1.34.45.76,1.2,1.32,2.53,1.68,4.04.15.46-.05,1.02-.47,1.28-1.98,1.27-4.86,2.83-7.52,4.12-.27.15-.55.24-.83.33ZM656.21,149.85c-2.14-6.03-4.48-11.93-7.05-17.75l-.04-.11c-.17-.51.09-1.1.52-1.3,1.6-.89,3.55-1.65,5.43-2.25.8-.26,1.54-.5,2.29-.68.51-.17,1.11.14,1.28.65.98,2.45,1.9,4.91,2.71,7.41,1.23,3.81,2.21,7.64,2.95,11.48.09.47-.12.98-.54,1.24-.84.52-1.94,1-3.02,1.35-1.14.37-2.25.6-3.35.71-.55.05-1.04-.29-1.18-.75Z"/><path class="cls-1" d="M677.95,155.93c-.44-.17-.71-.66-.6-1.1,1.59-11,3.9-21.88,6.93-32.77.11-.44.6-.77,1.1-.71,3.74.39,7.42,1.32,11.11,2.58.38.16.66.55.66.93,0,.16-.06.27-.11.44l-9.46,21.88.66.17c1.37-1.92,3.3-2.8,5.22-2.8,1.65,0,3.3.71,4.56,1.98,1.04,1.04,2.09,1.59,3.08,1.59,1.54,0,3.08-1.21,4.84-3.74.28-.38.82-.55,1.26-.33,2.97,1.43,5.66,3.19,8.08,5.28.22.22.33.49.33.77,0,.17,0,.33-.11.49-3.13,5.88-7.7,8.19-11.71,8.19-2.97,0-5.61-1.26-7.2-3.35-.99-1.26-2.53-2.2-4.23-2.2-1.87,0-3.85,1.1-5.44,4.01-.16.33-.6.55-.99.49-2.86-.27-5.55-.88-7.97-1.81Z"/><path class="cls-2" d="M732.91,159.86c.05.35.25.67.25,1.02.06,1.15-.07,2.33-.51,3.45-.17.58-.65,1.05-1.03,1.56-.43.51-.86,1.03-1.49,1.22-.87.28-1.78.56-2.72.69-.39.06-.78.16-1.2.02-.73-.2-1.48-.49-2.23-.79-.42-.14-.9-.32-1.21-.68-.25-.37-.64-.61-.85-.99-.39-.6-.64-1.27-.92-1.88-.13-.58-.12-1.19-.21-1.83-.11-.44.08-.87.17-1.28.16-.98.58-1.9,1.34-2.61.3-.35.82-.57,1.13-.92.73-.86,1.89-1.18,2.98-1.33.8-.06,1.61-.03,2.35.22.15.03,1.56.73,2.04,1.22.57.47,1.23.88,1.63,1.53.21.42.48.89.5,1.39ZM742.05,173.04c.3-.39,4.13-3.51,4.48-3.86.61-.64,2.78-3.07,3.29-4.05.46-.62.97-2.71,1.31-3.46.34-.8.22-1.94.35-2.82.18-1.18-.04-2.41-.26-3.59-.16-.43-.23-.87-.24-1.32-.25-.72-.56-1.43-.96-2.13-.19-.27-.34-.61-.44-.94-.23-.57-.65-1.01-1.02-1.51-.85-.68-1.66-1.37-2.41-2.07-.47-.49-1.06-.75-1.61-1.08-.34-.25-.75-.3-1.09-.55-.56-.42-1.21-.68-1.8-1-.66-.36-1.36-.71-2.05-.96-.58-.17-.86-.38-1.7-.61-.32.9-.8,1.78-1.17,2.69-.43.87-.65,1.8-1.13,2.63-.2.38-.29.8-.48,1.23-.28.49-.48,1.23-.53,1.59.37.1.73.2,1.11.39.49.28,1.06.4,1.51.69.71.4,1.41.7,2.16,1,.53.18.94.62,1.4,1.01.69.61,1.35,1.37,1.59,2.29.19.63.47,1.49.3,2.07.13.89-.26,2.05-.66,2.41-.62.94-1.67,2.05-3.16,3.22-.52.23-2.13,1.66-2.59,1.93.39.65,2.29,2.64,2.74,3.33l3.07,3.48ZM732.97,135.09c.05.35,0,.7.05,1.05.31,1.11.72,2.21,1.46,3.16.38.55.97.82,1.43,1.2.56.37,1.11.75,1.77.75.96.01,1.92.03,2.8-.1.4,0,.85-.07,1.17-.27.69-.45,1.32-.95,1.96-1.39.36-.3.77-.56.91-1.04.14-.42.44-.77.58-1.19.15-.68.2-1.39.36-2.06-.04-.6-.27-1.17-.3-1.77-.07-.49-.32-.86-.53-1.23-.48-.89-1.14-1.65-2.02-2.13-.44-.24-.95-.32-1.39-.56-.94-.62-2.14-.55-3.23-.44-.73.16-1.55.42-2.19.87-.13.12-1.3,1.14-1.61,1.74-.37.61-.89,1.18-1.08,1.92-.13.47-.21.99-.14,1.48ZM761.61,168.11c-1.31-4.6-2.97-9.15-4.96-13.5-.16-.44-.07-.9.31-1.16,1.94-1.47,3.91-2.69,6.04-3.48.44-.16.91-.02,1.16.36,2.86,4.45,5.12,9.32,6.77,14.54.16.44-.03.92-.46,1.13-2.48,1.24-5.05,2.13-7.75,2.79-.49.11-.99-.18-1.1-.67Z"/><path class="cls-1" d="M812.46,160.3c.23,1.85.02,3.88-.35,5.72-.08.35-.39.6-.77.65-1.73.13-3.41.04-5.16-.29-.44-.12-.8-.58-.65-1.07.35-1.32.53-2.58.4-3.64-.16-1.26-.74-2.17-1.9-2.54-.1,5.31-1.45,8.55-6.36,9.16-3.49.44-5.9-2.12-6.29-5.19s1.13-6.33,5.3-8.09l-.36-2.56-5.49.82c-.38.05-.83-.15-.92-.57-.24-.91-.43-1.74-.54-2.58-.09-.71-.14-1.43-.1-2.12-.05-.42.33-.81.7-.86,1.3-.21,2.52-.36,3.73-.51l1.68-.21-.29-1.97c-.05-.42.19-.88.6-.97.95-.25,1.95-.42,2.92-.54,1.22-.15,2.45-.22,3.73-.21.43-.01.81.33.86.75.02.51.13,1.35.21,2.36.47-.02.98,0,1.49-.02.38,0,.77.33.81.71.08.33.13.67.17,1,.12.97.15,1.9.1,2.85-.08.39-.34.68-.76.78l-1.42.22c.01.77.07,1.57.09,2.38,6.03.05,8.1,3,8.54,6.53ZM798.04,161.72c-.05-.42-.44-.76-.9-.7-.42.05-.71.47-.66.89s.44.76.86.7c.46-.06.75-.48.7-.9ZM813.26,150.72c.08.67.17,1.39.22,2.06.04.34-.2.75-.54.84-.97.42-2.05.64-3.15.74-.38.05-.79-.2-.89-.61l-1.82-6.64-.06-.16c-.05-.38.25-.76.52-.92,1.14-.4,2.43-.69,3.77-.9.42-.05.88.19.97.6.46,1.65.76,3.32.97,5Z"/><path class="cls-2" d="M869.25,128.59c0,1.31-.06,2.68-.12,4.05-.06.6-.54,1.01-1.07,1.07l-12.52.54-.24,3.64c1.19,0,2.33.06,3.4.12.54.06.95.54,1.01,1.07.06.6.06,1.13.06,1.67,0,1.25-.12,2.5-.36,3.64-.12.48-.48.78-.89.83l-3.64.54-.3,4.71c2.09.24,3.88.72,5.37,1.49.36.24.6.6.6,1.01-.06,1.31-.3,2.56-.66,3.82-.18.54-.66.89-1.19.83l-4.11-.48c-.54,2.8-3.87,5.54-8.11,5.54-4.95,0-7.27-3.22-7.27-6.5s2.09-6.38,6.14-6.98l-.12-2.38c-2.03.18-4.05.36-6.14.48-.54,0-1.07-.36-1.19-.89-.3-1.43-.42-2.92-.42-4.47,0-.66,0-1.31.06-2.03,0-.54.42-.95.95-1.01,2.09-.24,4.17-.42,6.2-.6l-.24-3.52-10.97.48h-.12c-.48,0-.89-.36-1.01-.77-.78-2.74-1.07-5.72-.89-8.82,0-.54.42-.95.89-1.07,3.82-.72,7.57-1.31,11.33-1.91l-.3-5.01c0-.6.36-1.13.95-1.19,2.92-.42,6.02-.72,9.24-.72.66,0,1.31.06,1.97.06.6.06,1.07.6,1.01,1.19l-.24,4.11c3.76-.36,7.51-.66,11.21-.89h.12c.48,0,.95.36,1.01.89.42,2.38.6,4.89.6,7.45ZM848.15,156.25c0-.66-.54-1.19-1.19-1.19s-1.19.54-1.19,1.19.54,1.19,1.19,1.19,1.19-.54,1.19-1.19Z"/><path class="cls-1" d="M896.59,175.1c-.22-.09-.42-.24-.54-.42-3.13-4.95-3.54-9.86-1.69-14.29.58-1.38,1.4-2.73,2.39-4v-.19s-12.98-2.32-12.98-2.32l-.22-.09c-.5-.21-.79-.59-.77-1.1.38-3.87,1.38-7.8,2.95-11.7.21-.5.72-.8,1.27-.7,8.8,1.48,17.43,3.99,25.73,7.46,1.16.49,2.27.95,3.35,1.47.5.21.78.78.65,1.25-.52,2.32-1.1,4.48-1.88,6.36-.28.66-.61,1.3-.94,1.94-.22.36-.55.55-.9.6-4.99.44-7.7,2.56-8.88,5.38-1,2.38-.85,5.3-.13,8.07.1.24.04.53-.06.76-.12.28-.37.56-.71.61-2.1.68-4.18.98-6.22,1.04-.13,0-.24-.04-.41-.11Z"/><path class="cls-2" d="M944.23,170.51c-1.71.44-3.54-.31-4.34-1.98-1.63-3.46-3.11-7.06-4.4-10.66l-.03-.13c-.11-.44.02-.85.4-.99,1.62-.97,3.44-1.72,5.4-2.31.44-.11.98.17,1.15.64l3.16,9.85,1.67-.61.09-.02c.44-.11.87.11,1.09.42.42.73.69,1.6.88,2.53.1.4-.12.82-.48,1.06-1.23.69-2.6,1.36-3.98,1.99-.21.1-.38.14-.6.2ZM956.01,164.8c-1.08-3.7-2.25-7.37-3.59-10.96l-.02-.09c-.11-.44.14-.92.48-1.06,1.43-.64,2.94-1.12,4.46-1.41.48-.12.95.23,1.05.62.49,1.56.97,3.07,1.36,4.61.59,2.33,1.05,4.69,1.33,7.05.09.35-.13.78-.49,1.01-.54.28-1.14.48-1.76.63s-1.24.27-1.89.29c-.43-.03-.83-.3-.93-.7Z"/><path class="cls-1" d="M987.6,158.89c-1.4-.92-2.32-2.36-2.56-3.97-.14-.93-.05-1.95.32-2.89,2.99-8.17,6.42-15.89,10.54-23.22.25-.42.84-.7,1.31-.52,5.32,1.34,10.63,3.43,15.97,6.09.34.14.58.48.64.85.04.25-.05.51-.2.79l-11.02,18.05,8.62,5.57c.28.21.46.5.5.81.03.19.06.37-.04.57-.91,2.73-2.22,5.33-4.1,7.51-.22.22-.45.38-.76.43-.19.03-.38,0-.58-.1-6.78-3.01-13.03-6.29-18.65-9.98Z"/><path class="cls-2" d="M1074.29,147.86c-.14.36-.59.6-1.03.56l-6.58-.8c-2.65,7.8-5.52,15.33-8.55,22.54-.16.47-.73.74-1.21.63-1.44-.38-2.8-.85-4.16-1.55-.46-.22-.67-.77-.51-1.24l2.01-5.69c-1.62.2-3.29.11-5.28-.34-.54-.12-1.18-.26-1.81-.46-4.1-1.31-5.55-5.13-4.81-8.46.81-3.59,4.21-6.72,9.68-5.49l.47-2.09c-3.37-.53-6.84-1.14-10.37-1.76-.48-.11-.85-.47-.85-.98-.13-2.96.15-5.94.82-8.94.17-.75.34-1.5.56-2.24.17-.52.69-.8,1.22-.68,3.86.87,7.62,1.71,11.31,2.59l.91-4.08c.11-.48.58-.83,1.13-.76,1.98.22,3.88.53,5.76.95,2.68.6,5.21,1.39,7.65,2.34.52.17.79.74.63,1.21l-1.27,4.17c2.07.58,4.03,1.13,5.99,1.68.48.11.82.63.7,1.17-.56,2.75-1.31,5.34-2.41,7.74ZM1051.74,154.97c.13-.59-.24-1.18-.83-1.31s-1.18.24-1.31.83.25,1.13.84,1.26,1.17-.19,1.3-.78Z"/><path class="cls-1" d="M27.75,170.53c-2.48-25-2.89-49.65-1.38-74.11.51-7.07,5.9-12.71,12.81-13.84,8.06-1.34,15.21-1.63,21.31-1.05,25.67,2.44,34.57,19.47,33.23,33.59-1.05,11.07-8.25,20.42-18.74,20.07v1.78c10.6,5.86,15.56,15.08,14.72,23.9-1.37,14.44-18,27.59-49.15,23.17-6.87-.98-12.15-6.66-12.8-13.52ZM59.31,158.64c.21-2.25-1.38-4.18-3.63-4.39-2.25-.21-4.18,1.38-4.39,3.63s1.38,4.18,3.63,4.39c2.25.21,4.18-1.38,4.39-3.63ZM61.21,111.39c.21-2.25-1.53-4.35-3.77-4.57-2.09-.2-4.19,1.54-4.41,3.79-.21,2.25,1.54,4.19,3.63,4.39,2.25.21,4.34-1.37,4.55-3.61Z"/><path class="cls-7" d="M143.35,206.91c-5.22,0-10.59-.13-15.94-.38-5-.31-9.14-3.69-10.22-8.39-5.67-23.67-9.42-48.75-11.15-74.61-.41-5.45,3.34-10.2,8.92-11.33,17.7-3.51,36.58-5.61,56.08-6.24,4.75-.15,9.74-.18,14.65-.19.29,2.63.48,5.32.57,7.97.28,8.73-.43,17.73-2.11,26.78l-35.37,1.14,2.53,25.03,25.98-.42c.16,1.23.26,2.45.3,3.6.06,1.71-.02,3.47-.24,5.42l-25.15-.95,1.96,20.98,24.61.45c.17,1.29.27,2.58.31,3.87.06,1.74.03,3.52-.08,5.37-8.43.89-16.74,1.46-25.31,1.73-3.42.11-6.9.17-10.34.17Z"/><path class="cls-1" d="M237.47,122.34l-5.19.65c-7.81.98-15.53,1.8-22.99,2.43-3.46-10.14-5.87-18.56-7.54-26.38-.58-2.71-1.02-5.31-1.45-8,25.1-9.56,54.73-18.15,90.42-26.24,2.63,14.51,4.18,29.87,4.61,45.73-7.83,1.98-15.42,3.75-23.15,5.4l-7.48,1.59,7.67,49.9c-3.5,1.24-7.04,2.24-10.55,2.99-3.72.79-7.42,1.34-11.01,1.62l-13.35-49.7Z"/><path class="cls-7" d="M344.83,126.33l-5.22.35c-7.85.53-15.61.89-23.09,1.09-2.87-10.32-4.78-18.87-5.99-26.77-.42-2.74-.71-5.37-.99-8.07,25.62-8.08,55.7-14.94,91.79-20.94,1.78,14.64,2.43,30.06,1.94,45.92-7.93,1.52-15.61,2.85-23.42,4.04l-7.56,1.16,4.76,50.26c-3.57,1.03-7.16,1.83-10.7,2.37-3.77.58-7.49.91-11.09.98l-10.44-50.39Z"/><path class="cls-1" d="M477.27,191.87c-8.45-.62-16.72-1.53-25.22-2.78-8.63-1.27-17.08-2.86-25.82-4.87-4.87-1.2-8.35-5.25-8.57-10.07-1.39-24.3-.63-49.64,2.24-75.4.56-5.44,5.1-9.44,10.79-9.57,1.81-.03,3.65-.05,5.49-.05,16.36,0,33.46,1.29,50.82,3.84,4.72.69,9.63,1.55,14.45,2.41-.18,2.64-.47,5.32-.85,7.95-1.27,8.64-3.56,17.37-6.83,25.98l-35.01-5.15-1.95,25.08,25.65,4.19c-.06,1.24-.18,2.46-.35,3.6-.25,1.69-.64,3.42-1.19,5.3l-24.58-5.39-1.79,21,24.14,4.8c-.06,1.3-.19,2.59-.38,3.86-.25,1.73-.59,3.47-1.03,5.27Z"/><path class="cls-7" d="M531.21,177.37c-8.45-26.48-14.72-53.52-18.66-80.42l-.83-5.64c-.57-4.91,2.16-9.59,6.66-11.41,10.24-4.3,20.12-7.16,29.45-8.52,4.01-.59,7.9-.88,11.58-.88,25.82,0,37.05,14.08,38.82,26.14,1.56,10.65-3.39,20.7-13.25,26.88l-6.51,4.08,5.53,5.33c10.32,9.93,17.99,20.14,23.39,31.12-6.84,3.43-14.2,5.89-22.38,7.47l-31.61-22.71-10.46,1.53,4.26,24.7c-2.84.55-5.49,1.04-8.09,1.42-2.5.37-5.17.65-7.92.92ZM552.56,95.36c-.52,0-1.04.04-1.56.11-2.79.41-5.25,1.87-6.92,4.11-1.67,2.24-2.37,5.02-1.96,7.81.76,5.21,5.13,9,10.38,9,.52,0,1.04-.04,1.55-.11,2.8-.41,5.26-1.87,6.93-4.11,1.67-2.24,2.36-5.02,1.96-7.82-.76-5.21-5.13-8.99-10.37-8.99Z"/><path class="cls-1" d="M215.15,286.96c-5.47,0-10.91-.28-16.21-.83-3.59-25.45-5.53-52.29-5.78-79.83,11.97-3.04,25.81-4.52,42.22-4.52,1.25,0,2.52.04,3.86.09.49.02.99.03,1.5.05-.3,30.99-2.75,58.59-7.49,84.2-6.16.57-12.1.85-18.1.85Z"/><path class="cls-7" d="M344.8,277.78c-1.51,0-3.08-.04-4.68-.13-4.23-.23-8.78-.83-14.65-1.93l-30.05-32.16-8.78,1.26-2.2,29.07c-2.17.06-4.4.08-6.6.08-4.89,0-9.91-.14-14.92-.42-4.99-.28-10-.69-14.9-1.23-.4-23.72-.09-44.29.94-62.83.43-7.76,1.02-15.61,1.76-23.36,6.12-1.09,12.51-1.62,19.47-1.62,2.22,0,4.52.06,6.85.17,14.72,18.29,27,34.77,37.5,50.35l1.67,2.47,10.37.57-1.28-51.28c2.46-.15,5.04-.22,7.71-.22,2.97,0,6.15.09,9.44.28,4.48.25,9,.63,13.48,1.13.36,15.46.05,31.6-.93,49.28-.85,15.35-1.97,28.2-3.5,40.2-2.12.21-4.36.32-6.68.32Z"/><path class="cls-1" d="M378.11,305.36c-3.33.15-6.41.1-9.33-.14-2.24-15.43-4.02-31.09-5.28-46.59-.85-10.47-1.47-21.6-1.96-35.03-.07-5.49,3.78-10.13,9.19-11.03,11.77-2.03,24.09-3.57,36.63-4.59,6.94-.57,13.23-.97,19.23-1.23,1.95-.09,3.89-.16,5.79-.21.57,3.97,1.03,7.97,1.35,11.95.79,9.68.75,18.9-.12,27.43l-43.64,1.77.95,24.82,19.66-1.38c.15,1.06.24,2.15.32,3.22.1,1.24.19,2.32.21,3.36l-19.87,1.4.95,24.67c-3.33.54-6.79,1.07-10.28,1.35-1.32.11-2.6.19-3.82.24Z"/><path class="cls-7" d="M459.91,295.69c-20.68,0-30.1-15.17-30.1-29.26s9.05-27.79,29.26-27.79c23.74,0,32.2,13.38,32.2,25.9,0,15.31-11.73,31.15-31.36,31.15ZM459.39,261.16c-4.81,0-8.73,3.92-8.73,8.73s4,8.62,8.73,8.62,8.62-3.87,8.62-8.62-3.87-8.73-8.62-8.73Z"/><path class="cls-1" d="M507.02,296.17c-.79,0-1.57,0-2.36-.01-5.65-27.21-9.08-54.76-10.2-81.92l-.24-5.7c-.06-4.94,3.15-9.31,7.81-10.66,10.63-3.21,20.76-5.03,30.17-5.42,1.23-.05,2.46-.08,3.65-.08,29.42,0,43.22,15.29,43.85,30.44.44,10.76-5.53,20.24-15.98,25.36l-6.9,3.38,4.95,5.87c9.23,10.95,15.8,21.9,20.03,33.39-7.17,2.7-14.74,4.38-23.03,5.1l-29.08-25.87-10.56.44,1.67,25.01c-2.83.25-5.58.46-8.19.57-1.62.07-3.45.1-5.61.1ZM532.86,216.77c-2.82.12-5.42,1.31-7.31,3.37-1.9,2.06-2.87,4.75-2.76,7.57.23,5.65,4.84,10.08,10.49,10.08,0,0,.3,0,.45,0,2.82-.12,5.42-1.31,7.31-3.37s2.87-4.75,2.76-7.57c-.23-5.65-4.84-10.08-10.5-10.08-.15,0-.3,0-.45,0Z"/><path class="cls-7" d="M679.68,279.79c-1.61,0-3.18-.04-4.7-.13l-6.21-31.92-11.26-.73-7.6,18.54c-1.55.06-3.07.1-4.59.1-1.37,0-2.58-.04-3.69-.11-2.55-.17-5.1-.55-7.85-1.02l-4.87-18.26-11.48-.74-8.27,29.23c-1.45-.03-2.88-.08-4.31-.17-7.19-.46-13.83-1.56-20.22-3.35l13.7-94.24c3.2-.25,6.38-.38,9.46-.38,2.35,0,4.7.08,6.98.22,2.68.17,5.39.47,8.07.88l15.26,36.83,11.05.71,12.57-33.56h.35c3.76,0,7.47.12,11.01.34,6.02.39,11.29,1.03,16.06,1.96l5.31,94.78c-5.35.68-10.21,1.02-14.75,1.02Z"/><path class="cls-1" d="M716.49,308.6c-6.99,0-13.82-.68-20.36-2.01,5.88-31.97,13.15-59.98,22.22-85.54,1.4-4.07,4.96-6.88,9.11-7.23h.12c4.49-.48,9.42-.7,15.1-.7,7.21,0,14.67.45,23.48,1.4,4.5.62,8.02,3.76,9.19,8.21,6.3,23.48,10.45,50.88,12.68,83.76-6.31,1.3-12.12,1.93-17.71,1.93-4.1,0-7.96-.35-12-1.11l-1.73-12.62h-29.7l-2.11,13.57c-2.76.22-5.54.33-8.29.33ZM743.22,249.35c-5.8,0-10.52,4.72-10.52,10.52s4.72,10.52,10.52,10.52,10.52-4.72,10.52-10.52-4.72-10.52-10.52-10.52Z"/><path class="cls-7" d="M824.41,276.89c-3.09,0-6.14-.16-9.09-.49l-3.83-51.32-5.22-.33c-7.84-.49-15.58-1.13-23.04-1.91-1.51-10.6-2.3-19.33-2.48-27.32-.06-2.77-.01-5.41.07-8.13,26.45-4.7,57.16-7.62,93.72-8.9-.13,14.75-1.48,30.13-4.01,45.79-8.05.48-15.84.81-23.74.98l-7.65.17-1.78,50.45c-3.67.56-7.34.89-10.92.97-.68.01-1.36.02-2.03.02Z"/><path class="cls-1" d="M865.72,289.13c-5.09-15.39-9.38-31.76-12.76-48.73,7.08-3.1,15.44-5.53,25.44-7.39.53-.1,1.05-.18,1.58-.27,3.27,19.04,4.92,36.37,5.03,52.76-3.43.93-6.8,1.71-10.23,2.34-3.03.56-6.07.99-9.06,1.28Z"/><path class="cls-7" d="M933.8,282.94c-30.38,0-44.22-22.27-44.22-42.95,0-22.43,15.87-46.57,50.72-46.57,9.09,0,19.08,1.67,29.72,4.96.13,2.18.23,4.29.23,6.38,0,10.19-1.39,20.42-4.12,30.45-12.48.09-19,7.36-19,14.53s6.04,14.13,19.55,14.13c.77,0,1.65,0,2.6-.04.8,3.25,1.2,6.72,1.19,10.54-13.29,5.69-25.62,8.57-36.67,8.57Z"/><path class="cls-1" d="M1015.84,302.89c-4.39,0-9.1-.44-14-1.3-4.42-.78-9.11-1.92-14.3-3.49-.35-2.35-.26-4.97.27-7.97.35-1.97.78-3.76,1.3-5.41,1.04.24,1.97.4,2.72.54,1.84.32,3.62.49,5.3.49,10.17,0,14.82-5.89,15.7-10.94,1.25-7.1-3.75-14.32-12.44-17.98-18.74-7.93-27.9-21.6-25.1-37.51,2.85-16.2,19.56-33.41,44.95-33.41,3.4,0,6.9.31,10.41.93,14.05,2.47,28.37,9.81,42.59,21.83-2.09,10.98-6.07,20.8-11.86,29.24-4.08-2.26-8.15-3.75-12.16-4.45-1.67-.29-3.34-.44-4.94-.44-9.55,0-16.87,5.2-18.23,12.93-1.3,7.39,3.36,14.52,12.46,19.09,7.92,3.98,12.02,11.1,10.71,18.58-1.69,9.6-12.66,19.28-33.38,19.28Z"/></svg>